<?xml version="1.0" standalone="no"?>
<!DOCTYPE svg PUBLIC "-//W3C//DTD SVG 20010904//EN"
 "http://www.w3.org/TR/2001/REC-SVG-20010904/DTD/svg10.dtd">
<svg version="1.0" xmlns="http://www.w3.org/2000/svg"
 width="900.000000pt" height="900.000000pt" viewBox="0 0 900.000000 900.000000"
 preserveAspectRatio="xMidYMid meet">
<metadata>
Created by potrace 1.10, written by Peter Selinger 2001-2011
</metadata>
<g transform="translate(0.000000,900.000000) scale(0.100000,-0.100000)"
fill="#000000" stroke="none">
<path d="M4343 7778 c-5 -7 -31 -34 -59 -61 l-50 -47 -869 2 c-479 1 -1248 4
-1710 5 -462 2 -850 1 -863 -2 l-22 -5 0 -505 0 -504 32 -9 33 -8 5 -2725 5
-2724 280 0 280 0 3 2727 2 2727 53 3 52 3 5 212 c3 116 7 214 10 216 10 10
2050 20 2050 10 0 -6 -42 -46 -92 -90 -51 -44 -138 -122 -194 -174 -107 -100
-198 -182 -333 -298 -46 -40 -89 -77 -96 -84 -16 -17 -143 -129 -242 -216
l-83 -72 0 -115 c0 -84 3 -114 13 -114 6 -1 382 0 835 0 l822 1 0 -86 c0 -82
1 -86 25 -95 l25 -10 -2 -262 -3 -263 -40 -19 c-104 -50 -123 -61 -172 -98
-196 -145 -297 -345 -310 -612 -8 -160 -2 -189 42 -215 19 -11 35 -25 35 -30
0 -5 -30 -29 -67 -54 -142 -93 -331 -298 -407 -442 -15 -27 -31 -57 -35 -65
-8 -14 -20 -42 -55 -122 -14 -34 -32 -94 -62 -208 -26 -95 -26 -445 -1 -545
45 -177 109 -336 172 -429 14 -20 25 -39 25 -42 0 -24 190 -234 279 -309 155
-129 383 -232 624 -280 158 -31 403 -18 577 32 137 39 298 111 377 169 17 13
35 24 40 24 5 0 16 8 24 17 9 10 33 32 54 48 103 80 247 246 311 360 64 112
129 271 144 350 4 22 13 60 20 85 9 30 13 109 14 240 0 208 -10 276 -61 425
-14 39 -27 79 -30 89 -15 49 -110 218 -161 286 -98 132 -231 257 -354 335 -48
30 -63 49 -52 66 3 5 14 9 24 9 10 0 28 16 41 36 20 33 21 44 16 133 -24 363
-150 565 -449 719 l-93 48 -7 85 c-3 46 -6 164 -7 262 l-1 177 26 10 c25 10
26 13 24 83 -1 39 -2 78 -1 85 1 10 165 12 831 12 457 -1 835 2 840 5 6 3 10
53 10 114 l0 108 -67 60 c-120 106 -234 206 -317 278 -74 64 -148 130 -182
163 -7 7 -51 45 -97 85 -197 170 -387 341 -387 349 0 8 436 6 1593 -7 257 -3
468 -6 469 -8 1 -1 4 -96 7 -212 l6 -210 50 -5 50 -5 5 -2725 5 -2725 280 0
280 0 5 2725 5 2725 30 5 30 5 3 508 2 507 -1733 0 -1734 -1 -64 60 -64 61
-132 0 c-95 0 -134 -4 -140 -12z m-1425 -203 c9 -3 -58 -77 -175 -195 l-188
-191 -45 3 -45 3 -3 188 c-2 178 -1 188 17 195 21 8 417 5 439 -3z m565 -92
c173 -171 239 -250 232 -273 -6 -20 -12 -20 -521 -20 -443 0 -515 2 -512 14 4
21 349 370 371 376 10 3 88 4 174 3 l157 -2 99 -98z m2370 99 c251 -1 457 -6
457 -10 0 -5 -82 -93 -182 -195 l-181 -187 -194 0 -193 0 -123 123 c-245 247
-252 256 -229 264 12 5 59 8 104 8 46 0 289 -1 541 -3z m640 -5 c16 -11 17
-32 15 -197 l-3 -185 -222 -3 c-123 -1 -223 1 -223 5 1 16 366 381 385 386 11
2 23 5 26 6 3 0 13 -5 22 -12z m-2373 -7 c0 -6 -15 -26 -32 -43 -67 -66 -285
-247 -298 -247 -8 0 -284 277 -288 290 -2 6 113 10 307 10 211 0 311 -3 311
-10z m1143 -178 c103 -104 184 -192 180 -195 -3 -4 -42 -7 -86 -7 -87 0 -83
-2 -193 100 -29 26 -74 64 -100 84 -68 52 -214 186 -214 197 0 5 51 9 113 9
l113 0 187 -188z m-345 -20 c4 -26 -16 -65 -68 -131 l-41 -52 -137 3 c-129 3
-137 4 -137 23 0 13 10 22 30 28 93 28 183 94 240 176 l28 41 41 -34 c23 -18
42 -43 44 -54z m-722 8 c31 -32 71 -69 90 -80 19 -12 34 -27 34 -33 0 -6 -14
-26 -32 -44 -26 -27 -39 -33 -75 -33 -46 0 -57 8 -108 75 -37 49 -55 81 -55
97 0 17 61 78 77 78 8 0 39 -27 69 -60z m242 -168 c3 -19 -1 -22 -32 -22 -40
0 -43 5 -19 32 22 24 47 19 51 -10z m2 -128 c0 -12 -9 -14 -42 -12 -59 4 -63
28 -4 28 35 0 46 -4 46 -16z m184 7 c8 -12 -18 -21 -60 -21 -24 0 -34 5 -34
15 0 11 12 15 44 15 25 0 47 -4 50 -9z m996 -329 c19 -14 37 -29 40 -33 3 -3
41 -37 85 -75 128 -110 155 -136 149 -145 -6 -10 -1323 -13 -1348 -3 -13 5
-16 27 -16 134 0 92 4 131 13 137 13 9 731 20 922 14 110 -3 123 -5 155 -29z
m-1191 14 c8 -9 11 -56 9 -142 l-3 -129 -674 0 c-441 0 -675 3 -677 10 -2 9
138 135 263 238 l45 37 513 0 c425 0 515 -2 524 -14z m-3439 -137 c0 -16 -50
-43 -61 -32 -13 13 -1 41 19 46 21 4 42 -2 42 -14z m320 -285 c0 -198 -3 -294
-10 -294 -6 0 -29 17 -51 37 -67 62 -111 100 -205 181 -50 42 -97 86 -104 97
-21 32 -13 107 13 128 12 10 53 46 91 80 l69 62 86 5 c47 3 92 3 99 1 9 -2 12
-70 12 -297z m6567 276 c14 -10 58 -49 99 -86 72 -65 74 -68 74 -114 0 -53 -4
-57 -205 -230 -60 -52 -120 -105 -134 -117 -13 -13 -28 -23 -32 -23 -5 0 -9
133 -9 295 l0 295 91 0 c75 0 95 -3 116 -20z m173 5 c13 -16 6 -35 -13 -35
-20 0 -58 30 -52 41 9 14 51 11 65 -6z m-2045 -220 c11 -3 45 -28 75 -56 30
-28 87 -79 125 -114 39 -34 85 -75 102 -91 24 -21 34 -40 38 -70 9 -80 75 -74
-798 -75 -685 0 -780 2 -799 16 -29 20 -110 19 -149 -1 -16 -8 -39 -12 -49 -9
-19 6 -20 17 -20 201 0 107 1 195 3 196 12 11 1426 14 1472 3z m-1570 -200 l0
-200 -26 -3 c-14 -2 -31 4 -39 12 -17 21 -127 21 -154 1 -17 -13 -129 -15
-797 -15 -865 0 -789 -7 -789 70 0 36 6 44 127 151 70 62 146 130 171 151 l43
38 732 -2 732 -3 0 -200z m-3449 18 c16 -16 79 -71 139 -123 193 -166 185
-157 185 -216 l0 -51 -77 -70 c-43 -39 -116 -103 -163 -143 -47 -40 -87 -76
-90 -79 -3 -3 -15 -12 -27 -18 l-23 -13 -2 363 c-2 199 -2 365 0 370 6 14 28
7 58 -20z m7064 -343 l0 -371 -22 12 c-13 7 -25 15 -28 19 -3 4 -43 40 -90 80
-47 40 -120 104 -162 143 l-78 70 0 53 0 53 83 72 c45 40 115 102 156 138 41
36 83 74 94 84 47 41 47 42 47 -353z m-3464 29 c4 -7 6 -44 5 -84 l-2 -73 32
-11 31 -11 -5 -246 c-3 -135 -7 -247 -9 -249 -7 -7 -297 -7 -307 0 -7 4 -11
89 -11 251 l0 244 25 10 c24 9 25 13 25 95 l0 85 104 0 c68 0 107 -4 112 -11z
m3229 -303 c39 -35 107 -95 153 -135 82 -72 82 -72 82 -121 0 -49 0 -49 -82
-121 -46 -40 -99 -87 -118 -105 -89 -81 -165 -142 -172 -138 -10 6 -11 718 -2
727 7 7 31 -11 139 -107z m-6505 -255 c0 -210 -4 -362 -9 -366 -8 -4 -91 59
-111 84 -3 4 -54 49 -115 101 -141 120 -145 125 -145 182 0 46 1 48 83 119 45
40 87 78 93 83 18 17 126 111 154 135 51 42 50 47 50 -338z m-295 -226 c6 -7
57 -52 115 -102 58 -50 122 -105 143 -123 l37 -34 0 -136 0 -136 -72 -61 c-40
-34 -84 -72 -98 -85 -56 -53 -194 -168 -202 -168 -4 0 -8 205 -8 456 l0 456
38 -28 c20 -15 42 -33 47 -39z m7035 -390 c0 -293 -4 -455 -10 -455 -9 0 -133
99 -155 124 -5 6 -56 51 -112 100 l-103 88 0 138 0 138 73 63 c39 35 74 67 77
70 3 3 43 39 90 79 47 40 87 76 90 79 4 5 41 29 48 30 1 1 2 -204 2 -454z
m-3415 369 c38 -15 -15 -24 -142 -24 -118 0 -167 9 -131 23 19 8 254 8 273 1z
m245 -123 c99 -66 176 -165 216 -276 24 -67 52 -249 45 -301 -1 -15 -100 -39
-221 -54 -137 -17 -633 -24 -760 -11 -58 6 -145 15 -193 20 -49 6 -96 16 -104
23 -13 10 -14 28 -9 108 11 145 61 288 135 380 36 45 46 55 94 99 l26 24 313
-1 c262 -1 340 2 409 17 3 0 25 -12 49 -28z m-3570 -864 c0 -200 -3 -367 -7
-370 -5 -6 -113 81 -148 119 -5 6 -58 52 -117 103 -60 51 -108 98 -109 104 -1
7 0 30 0 52 2 43 7 49 141 165 34 30 97 85 139 122 42 37 82 67 89 67 9 1 12
-78 12 -362z m6392 355 c2 -5 55 -53 118 -108 63 -54 120 -103 125 -110 6 -6
31 -28 58 -49 45 -36 47 -39 47 -90 0 -44 -4 -55 -27 -76 -16 -14 -80 -69
-143 -124 -63 -55 -131 -114 -150 -132 -19 -18 -41 -33 -47 -33 -10 0 -13 80
-13 365 0 308 2 365 14 365 8 0 16 -4 18 -8z m-2672 -298 c42 -22 75 -46 80
-58 4 -12 15 -40 24 -63 9 -24 23 -62 32 -85 9 -24 23 -61 31 -83 8 -22 21
-53 28 -70 7 -16 20 -50 30 -75 26 -66 71 -168 94 -210 31 -57 41 -80 41 -91
0 -13 200 -417 242 -489 60 -102 69 -128 63 -167 -14 -80 -77 -245 -118 -304
l-18 -27 -47 24 c-38 20 -62 24 -131 24 -97 0 -293 -39 -379 -76 -18 -8 -41
-14 -50 -14 -10 0 -27 -7 -38 -15 -10 -8 -27 -15 -36 -15 -9 0 -29 -6 -45 -14
-15 -8 -90 -45 -166 -83 -136 -67 -155 -77 -209 -111 -99 -63 -154 -107 -232
-184 -49 -48 -95 -88 -102 -88 -24 0 -194 80 -264 124 -142 91 -263 205 -354
335 -86 124 -167 295 -186 396 -4 22 -13 60 -20 85 -8 29 -13 108 -14 225 0
182 12 274 50 363 8 18 14 40 14 48 0 9 6 28 14 42 7 15 28 59 47 97 46 96
118 201 197 286 72 77 230 202 302 238 25 12 52 26 60 30 56 31 69 33 132 22
131 -23 345 -29 548 -15 107 8 213 18 235 23 64 14 70 13 145 -25z m355 -250
c17 -21 48 -58 69 -83 93 -108 212 -340 233 -451 2 -14 11 -52 18 -85 21 -87
26 -192 10 -205 -10 -8 -19 1 -38 37 -13 27 -34 64 -45 83 -11 19 -57 109
-102 200 -45 91 -88 178 -96 193 -8 16 -14 33 -14 38 0 5 -13 37 -28 71 -33
73 -51 120 -61 163 -4 17 -13 40 -19 52 -7 12 -9 28 -6 37 5 13 9 13 27 1 12
-8 36 -31 52 -51z m-4410 2 c6 -6 62 -56 125 -110 213 -183 210 -179 210 -239
0 -52 -1 -53 -62 -108 -140 -125 -300 -259 -309 -259 -5 0 -9 7 -9 15 0 8 0
168 0 355 0 187 0 347 0 355 0 16 28 10 45 -9z m7075 -346 c0 -222 -4 -370 -9
-370 -9 0 -169 134 -308 259 l-63 55 0 57 c0 51 3 60 28 79 15 12 43 36 62 54
19 17 67 58 105 91 39 32 87 75 108 94 32 30 54 45 75 50 1 1 2 -165 2 -369z
m-6742 -538 c2 -269 -1 -362 -9 -362 -12 0 -84 58 -164 131 -22 20 -77 69
-122 108 l-83 72 0 53 c0 52 1 55 52 97 112 95 160 137 263 231 22 21 45 36
50 34 6 -2 11 -134 13 -364z m6437 320 c28 -26 100 -89 160 -141 140 -121 145
-126 145 -182 0 -44 -3 -48 -62 -99 -35 -30 -70 -61 -79 -69 -9 -9 -27 -25
-40 -36 -13 -12 -59 -51 -101 -88 -42 -37 -81 -67 -87 -67 -12 0 -16 711 -4
723 11 12 16 8 68 -41z m-6779 -500 c10 -10 51 -45 89 -77 39 -32 72 -61 75
-64 3 -3 41 -37 85 -76 44 -38 83 -74 87 -80 4 -5 8 -32 8 -60 0 -57 12 -42
-155 -185 -60 -52 -119 -103 -130 -113 -46 -43 -86 -69 -93 -61 -10 12 -3 734
6 734 5 0 17 -8 28 -18z m7086 -344 c2 -200 0 -367 -4 -372 -8 -11 -37 8 -93
59 -22 20 -95 84 -162 142 l-123 106 0 58 c0 46 4 61 20 72 10 7 52 43 92 79
121 109 251 218 259 218 5 0 10 -163 11 -362z m-6742 -543 c0 -200 -4 -366 -8
-369 -5 -3 -28 14 -53 37 -24 24 -73 67 -109 97 -76 65 -130 113 -176 157 -30
28 -34 39 -34 82 0 48 1 50 68 107 37 32 69 62 72 65 3 3 34 30 70 59 36 30
85 73 109 96 25 24 48 41 53 38 4 -3 8 -169 8 -369z m6455 299 c5 -6 59 -53
120 -105 157 -135 157 -135 165 -178 8 -47 -1 -65 -60 -117 -25 -21 -49 -44
-55 -50 -5 -6 -57 -51 -115 -101 -58 -50 -111 -98 -119 -107 -7 -8 -17 -13
-22 -10 -10 6 -12 727 -2 738 6 5 46 -26 88 -70z m-2392 21 c52 -21 54 -42 10
-88 -42 -43 -162 -137 -233 -182 -181 -115 -420 -185 -636 -185 -121 0 -129 6
-91 67 65 100 257 227 467 308 25 9 60 23 78 31 18 8 40 14 48 14 9 0 37 7 63
15 107 34 239 43 294 20z m-4381 -521 c23 -20 45 -39 48 -43 3 -4 55 -49 115
-101 173 -148 156 -121 153 -246 l-3 -109 -179 -3 c-99 -1 -183 1 -188 6 -6 6
-13 450 -8 525 0 15 19 6 62 -29z m7059 -228 c0 -143 -4 -263 -9 -268 -5 -5
-89 -7 -188 -6 l-179 3 -3 111 -3 110 33 30 c18 16 62 53 98 83 36 30 70 60
75 66 32 35 158 136 167 133 6 -2 9 -102 9 -262z"/>
<path d="M4414 4923 c-85 -49 -108 -84 -108 -167 0 -72 22 -116 76 -156 27
-20 45 -24 103 -25 62 0 74 3 107 28 53 41 78 88 78 148 0 53 -19 101 -53 134
-58 55 -144 71 -203 38z"/>
<path d="M4850 4663 c-87 -32 -73 -143 18 -143 48 0 72 24 72 72 0 30 -6 40
-34 57 -18 12 -35 21 -37 20 -2 0 -11 -3 -19 -6z"/>
<path d="M4125 4023 c-114 -35 -158 -55 -242 -110 -72 -47 -185 -163 -207
-213 -3 -8 -15 -30 -27 -49 -26 -43 -45 -98 -70 -194 -49 -197 1 -408 141
-590 87 -112 196 -189 350 -246 96 -36 343 -39 444 -5 119 39 229 105 307 184
56 56 123 148 145 200 3 8 12 29 19 45 40 92 48 138 48 270 0 158 -22 242 -99
375 -84 145 -253 275 -428 327 -75 23 -315 27 -381 6z m255 -188 c124 -23 185
-50 265 -117 53 -44 99 -100 127 -153 50 -94 53 -106 53 -245 0 -134 -8 -177
-46 -240 -5 -8 -14 -26 -19 -39 -6 -14 -43 -56 -83 -95 -109 -107 -233 -159
-377 -159 -170 1 -322 77 -422 211 -78 104 -101 170 -106 306 -3 114 -2 119
51 236 78 172 249 283 472 308 6 1 44 -5 85 -13z"/>
</g>
</svg>
