<?xml version="1.0" standalone="no"?>
<!DOCTYPE svg PUBLIC "-//W3C//DTD SVG 20010904//EN"
 "http://www.w3.org/TR/2001/REC-SVG-20010904/DTD/svg10.dtd">
<svg version="1.0" xmlns="http://www.w3.org/2000/svg"
 width="900.000000pt" height="900.000000pt" viewBox="0 0 900.000000 900.000000"
 preserveAspectRatio="xMidYMid meet">
<metadata>
Created by potrace 1.10, written by Peter Selinger 2001-2011
</metadata>
<g transform="translate(0.000000,900.000000) scale(0.100000,-0.100000)"
fill="#000000" stroke="none">
<path d="M4300 7775 c-19 -7 -45 -14 -57 -14 -14 -1 -34 -17 -55 -46 l-33 -44
-825 -2 c-454 -1 -829 0 -835 2 -17 6 -1678 10 -1702 4 l-23 -5 0 -505 0 -504
32 -9 33 -8 5 -2725 5 -2724 280 0 280 0 3 2727 2 2727 53 3 52 3 5 212 c3
116 7 214 10 216 3 3 501 9 1108 13 813 5 1102 4 1102 -4 0 -6 -28 -50 -62
-98 -140 -193 -218 -300 -225 -309 -5 -5 -22 -30 -39 -55 -17 -25 -52 -76 -79
-115 -26 -38 -62 -90 -79 -115 -17 -25 -35 -50 -41 -57 -5 -7 -45 -61 -88
-120 -42 -59 -110 -153 -150 -208 -75 -103 -138 -194 -171 -246 -15 -25 -17
-35 -7 -55 6 -14 11 -35 11 -46 0 -12 7 -48 16 -80 19 -65 27 -69 99 -42 22 8
63 19 90 24 28 5 60 12 71 15 17 5 23 1 27 -17 4 -13 16 -27 29 -33 l23 -10 0
-265 0 -264 -25 -12 c-165 -77 -253 -140 -332 -238 -105 -130 -178 -357 -178
-551 0 -91 11 -116 61 -144 21 -12 39 -24 39 -26 0 -2 -31 -24 -69 -48 -37
-25 -90 -66 -117 -91 -27 -25 -52 -46 -56 -46 -12 0 -149 -164 -192 -230 -24
-36 -60 -99 -81 -140 -20 -41 -41 -83 -46 -92 -4 -9 -17 -43 -27 -75 -88 -273
-101 -519 -40 -748 6 -22 14 -56 19 -75 12 -54 37 -117 85 -215 53 -108 54
-109 128 -210 87 -117 275 -296 346 -328 8 -4 29 -16 45 -26 90 -57 275 -135
360 -151 22 -4 60 -13 85 -20 73 -21 406 -18 505 4 91 21 244 70 293 95 35 17
100 51 123 64 182 98 405 328 504 522 14 28 29 57 34 65 75 139 131 385 131
575 0 344 -130 673 -365 923 -76 80 -221 199 -282 231 -33 17 -28 40 11 56 40
17 46 34 45 140 -1 254 -64 433 -206 582 -28 30 -147 123 -157 123 -3 0 -28
14 -56 30 -28 17 -57 30 -64 30 -7 0 -25 9 -40 21 l-26 20 0 253 c0 239 1 254
20 271 15 14 20 33 22 98 l3 80 65 18 c36 9 101 25 145 34 44 9 103 23 131 31
28 8 59 14 69 14 10 0 41 6 69 14 69 19 143 37 191 46 22 4 83 18 135 30 114
27 153 35 245 50 39 7 75 16 82 22 6 5 33 13 60 17 26 5 69 14 96 20 26 6 68
16 95 22 26 7 65 15 87 19 56 10 135 30 170 42 17 6 53 14 80 18 28 3 68 11
90 17 22 6 76 19 120 28 75 16 121 26 240 55 28 7 68 16 90 20 22 4 58 12 80
18 22 6 76 18 120 27 44 9 103 23 131 31 28 8 60 14 71 14 11 0 39 6 64 14 24
8 88 22 142 31 54 10 99 21 101 24 5 7 -6 57 -32 156 -17 66 -32 83 -107 121
-27 14 -63 33 -80 43 -16 10 -61 35 -100 56 -38 21 -94 51 -122 66 -29 16 -77
42 -105 58 -102 55 -169 91 -220 120 -29 16 -72 39 -95 51 -24 12 -43 26 -43
31 0 6 158 7 398 4 218 -3 605 -7 860 -10 254 -3 463 -6 464 -8 1 -1 4 -96 7
-212 l6 -210 50 -5 50 -5 5 -2725 5 -2725 280 0 280 0 5 2725 5 2725 30 5 30
5 3 508 2 507 -1768 0 -1769 -1 -77 46 c-42 25 -80 45 -85 45 -5 0 -14 7 -21
15 -16 19 -140 19 -190 0z m-1382 -200 c9 -3 -58 -77 -175 -195 l-188 -191
-45 3 -45 3 -3 188 c-2 178 -1 188 17 195 21 8 417 5 439 -3z m650 -181 c100
-102 182 -190 182 -195 0 -5 -235 -9 -536 -9 -461 0 -535 2 -532 14 4 21 349
370 371 376 10 3 89 4 175 3 l157 -2 183 -187z m512 171 c0 -7 -15 -32 -32
-56 -18 -25 -39 -56 -47 -69 -13 -23 -99 -146 -139 -198 l-18 -23 -169 171
c-94 94 -171 175 -173 180 -3 9 521 20 561 11 9 -2 17 -9 17 -16z m1124 -116
c140 -140 158 -172 61 -110 -16 11 -50 31 -75 44 -25 14 -70 39 -100 56 -30
18 -66 37 -80 42 -29 13 -39 18 -108 54 -84 44 -69 52 83 47 l90 -3 129 -130z
m649 133 c251 -1 457 -6 457 -10 0 -5 -82 -93 -182 -195 l-181 -187 -194 0
-193 0 -123 123 c-245 247 -252 256 -229 264 12 5 59 8 104 8 46 0 289 -1 541
-3z m640 -5 c16 -11 17 -32 15 -197 l-3 -185 -222 -3 c-123 -1 -223 1 -223 5
1 16 366 381 385 386 11 2 23 5 26 6 3 0 13 -5 22 -12z m-1688 -81 c22 -12 42
-31 43 -41 7 -32 -67 -190 -113 -242 -18 -21 -28 -23 -122 -23 -94 0 -103 2
-114 21 -12 24 -15 21 63 73 60 40 118 110 156 189 13 26 29 47 35 47 7 -1 30
-11 52 -24z m-692 -173 c59 -43 111 -73 129 -73 29 0 41 -17 29 -39 -11 -19
-20 -21 -114 -21 l-103 0 -33 34 c-18 19 -32 38 -30 43 14 30 55 93 63 93 4 0
31 -17 59 -37z m290 -118 c1 -5 -6 -11 -15 -13 -11 -2 -18 3 -18 13 0 17 30
18 33 0z m29 -117 c10 -26 -4 -38 -45 -38 -37 0 -66 5 -155 25 -13 3 -20 10
-17 15 9 15 212 13 217 -2z m1266 -85 c37 -20 81 -44 97 -54 17 -10 53 -29 82
-43 28 -15 55 -31 58 -36 3 -6 15 -10 26 -10 10 0 19 -7 19 -14 0 -17 -112
-52 -245 -76 -22 -4 -62 -13 -90 -20 -27 -6 -75 -18 -105 -25 -30 -7 -75 -18
-100 -25 -25 -6 -67 -15 -95 -19 -52 -8 -114 -23 -201 -47 -28 -8 -59 -14 -69
-14 -10 0 -41 -6 -69 -14 -28 -8 -87 -22 -131 -31 -44 -9 -103 -23 -131 -31
-28 -8 -58 -14 -67 -14 -20 0 -37 30 -37 63 0 14 -6 42 -14 63 -7 22 -16 62
-20 90 l-6 52 40 16 c22 9 52 16 67 16 14 0 49 6 77 14 71 20 144 37 191 46
47 9 120 26 191 46 28 8 63 14 78 14 15 0 37 5 49 12 12 7 45 15 72 19 52 6
117 21 195 44 64 19 64 19 138 -22z m-1176 -285 c3 -26 9 -52 13 -57 3 -6 10
-34 15 -63 4 -29 11 -60 15 -69 5 -14 -7 -21 -63 -38 -39 -11 -78 -21 -88 -21
-9 0 -40 -6 -68 -14 -28 -8 -87 -22 -131 -31 -44 -9 -98 -21 -120 -27 -22 -6
-58 -14 -80 -18 -22 -4 -62 -13 -90 -20 -119 -29 -165 -39 -240 -55 -77 -16
-133 -29 -240 -55 -27 -7 -70 -16 -95 -20 -25 -5 -58 -13 -73 -19 -16 -6 -33
-9 -38 -6 -10 7 2 27 98 160 139 192 141 195 170 195 14 0 49 6 77 14 28 8 87
22 131 31 44 9 98 21 120 27 22 6 58 14 80 18 22 4 63 13 90 20 105 25 163 39
240 55 44 9 100 22 125 30 25 7 67 13 95 12 l50 -2 7 -47z m1622 43 c3 -5 27
-20 53 -34 27 -13 64 -34 83 -45 19 -12 58 -33 85 -47 115 -59 129 -71 148
-121 10 -26 16 -52 14 -58 -5 -11 -60 -27 -217 -61 -41 -9 -98 -23 -126 -31
-28 -8 -59 -14 -69 -14 -10 0 -41 -6 -69 -14 -28 -8 -87 -22 -131 -31 -77 -16
-135 -29 -240 -55 -27 -7 -68 -16 -90 -20 -56 -10 -135 -30 -170 -42 -16 -6
-52 -14 -80 -18 -65 -10 -133 -24 -320 -70 -27 -7 -70 -16 -95 -21 -25 -4 -59
-13 -77 -19 -56 -20 -74 -11 -89 45 -8 28 -16 64 -19 80 -3 17 -12 55 -20 85
-31 125 -37 162 -29 170 5 5 32 14 59 20 70 17 151 36 210 50 28 7 68 16 90
20 22 4 61 12 88 19 26 6 68 16 95 22 26 6 65 16 87 21 22 5 69 15 105 23 36
7 88 18 115 25 118 28 165 39 240 55 44 9 103 23 131 31 28 8 62 14 75 15 13
0 40 7 59 14 41 16 96 19 104 6z m-5154 -122 c0 -16 -50 -43 -61 -32 -13 13
-1 41 19 46 21 4 42 -2 42 -14z m320 -285 c0 -198 -3 -294 -10 -294 -6 0 -29
17 -51 37 -67 62 -111 100 -205 181 -50 42 -97 86 -104 97 -21 32 -13 107 13
128 12 10 53 46 91 80 l69 62 86 5 c47 3 92 3 99 1 9 -2 12 -70 12 -297z
m6567 276 c14 -10 58 -49 99 -86 72 -65 74 -68 74 -114 0 -53 -4 -57 -205
-230 -60 -52 -120 -105 -134 -117 -13 -13 -28 -23 -32 -23 -5 0 -9 133 -9 295
l0 295 91 0 c75 0 95 -3 116 -20z m173 5 c13 -16 6 -35 -13 -35 -20 0 -58 30
-52 41 9 14 51 11 65 -6z m-3462 -228 c6 -6 13 -23 15 -37 18 -90 41 -192 53
-236 8 -28 14 -64 14 -80 0 -27 -4 -30 -52 -43 -29 -7 -71 -17 -93 -21 -22 -4
-62 -13 -90 -20 -119 -29 -165 -39 -240 -55 -77 -16 -133 -29 -240 -55 -27 -7
-70 -16 -95 -20 -25 -5 -57 -13 -73 -19 -32 -12 -109 -15 -185 -5 -74 9 -100
0 -104 -33 -3 -23 -9 -29 -43 -34 -22 -4 -53 -12 -68 -18 -16 -6 -46 -11 -68
-11 -39 0 -39 0 -39 40 0 46 -18 60 -77 60 -76 0 -83 -6 -83 -67 0 -64 -13
-93 -41 -93 -11 0 -50 -8 -85 -17 -79 -21 -93 -12 -96 62 -2 48 1 55 73 150
41 55 87 119 101 142 48 74 88 113 116 113 14 0 48 6 76 14 28 8 84 22 124 30
182 40 220 48 257 58 22 6 58 14 80 18 22 4 63 13 90 20 119 29 165 39 240 55
44 9 103 23 131 31 28 8 59 14 69 14 10 0 41 6 69 14 97 27 198 50 242 55 6 0
16 -5 22 -12z m-3602 -174 c16 -16 79 -71 139 -123 193 -166 185 -157 185
-216 l0 -51 -77 -70 c-43 -39 -116 -103 -163 -143 -47 -40 -87 -76 -90 -79 -3
-3 -15 -12 -27 -18 l-23 -13 -2 363 c-2 199 -2 365 0 370 6 14 28 7 58 -20z
m7064 -343 l0 -371 -22 12 c-13 7 -25 15 -28 19 -3 4 -43 40 -90 80 -47 40
-120 104 -162 143 l-78 70 0 53 0 53 83 72 c45 40 115 102 156 138 41 36 83
74 94 84 47 41 47 42 47 -353z m-235 -274 c39 -35 107 -95 153 -135 82 -72 82
-72 82 -121 0 -49 0 -49 -82 -121 -46 -40 -99 -87 -118 -105 -89 -81 -165
-142 -172 -138 -10 6 -11 718 -2 727 7 7 31 -11 139 -107z m-6505 -255 c0
-210 -4 -362 -9 -366 -8 -4 -91 59 -111 84 -3 4 -54 49 -115 101 -141 120
-145 125 -145 182 0 46 1 48 83 119 45 40 87 78 93 83 18 17 126 111 154 135
51 42 50 47 50 -338z m2188 247 c3 -64 4 -67 33 -77 l29 -10 -2 -248 -3 -247
-130 -2 c-71 -2 -143 -4 -160 -6 l-30 -3 -3 252 -2 252 25 17 c19 12 25 25 25
51 0 30 5 36 35 49 20 8 57 17 83 21 26 3 54 9 62 14 28 15 35 3 38 -63z
m-2483 -473 c6 -7 57 -52 115 -102 58 -50 122 -105 143 -123 l37 -34 0 -136 0
-136 -72 -61 c-40 -34 -84 -72 -98 -85 -56 -53 -194 -168 -202 -168 -4 0 -8
205 -8 456 l0 456 38 -28 c20 -15 42 -33 47 -39z m7035 -390 c0 -293 -4 -455
-10 -455 -9 0 -133 99 -155 124 -5 6 -56 51 -112 100 l-103 88 0 138 0 138 73
63 c39 35 74 67 77 70 3 3 43 39 90 79 47 40 87 76 90 79 4 5 41 29 48 30 1 1
2 -204 2 -454z m-4534 153 c4 -5 5 -10 2 -13 -10 -10 -144 -18 -182 -11 -41 8
-47 22 -13 29 34 8 184 3 193 -5z m329 -170 c124 -114 186 -249 200 -439 7
-98 -1 -114 -58 -123 -18 -3 -74 -12 -126 -21 -73 -12 -182 -15 -475 -15 -364
0 -451 5 -603 36 -31 6 -37 39 -23 126 21 124 27 151 48 203 47 121 66 149
141 224 l66 66 384 0 383 0 63 -57z m-2535 -601 c0 -200 -3 -367 -7 -370 -5
-6 -113 81 -148 119 -5 6 -58 52 -117 103 -60 51 -108 98 -109 104 -1 7 0 30
0 52 2 43 7 49 141 165 34 30 97 85 139 122 42 37 82 67 89 67 9 1 12 -78 12
-362z m6392 355 c2 -5 55 -53 118 -108 63 -54 120 -103 125 -110 6 -6 31 -28
58 -49 45 -36 47 -39 47 -90 0 -44 -4 -55 -27 -76 -16 -14 -78 -68 -140 -122
-61 -53 -129 -112 -150 -132 -21 -19 -44 -35 -50 -35 -10 0 -13 80 -13 365 0
308 2 365 14 365 8 0 16 -4 18 -8z m-3812 -495 c74 -27 117 -56 134 -91 9 -18
16 -39 16 -45 0 -6 6 -25 14 -43 8 -18 21 -51 29 -73 26 -69 49 -129 65 -165
8 -19 20 -48 27 -65 6 -16 20 -48 29 -70 10 -22 24 -53 31 -70 42 -98 278
-580 305 -625 42 -68 70 -124 70 -142 0 -62 -118 -348 -144 -348 -7 0 -28 8
-47 17 -87 44 -294 22 -514 -54 -38 -14 -79 -27 -90 -30 -11 -2 -35 -11 -52
-19 -18 -8 -47 -21 -65 -28 -33 -14 -210 -102 -258 -127 -104 -57 -290 -198
-356 -273 -37 -42 -43 -45 -70 -36 -179 56 -383 190 -506 332 -64 75 -118 144
-118 151 0 4 -12 23 -26 44 -72 105 -132 274 -159 442 -62 392 71 796 353
1069 78 75 234 183 333 230 l47 23 138 -17 c239 -30 544 -20 774 25 3 0 21 -5
40 -12z m-2915 -51 c6 -6 62 -56 125 -110 213 -183 210 -179 210 -239 0 -52
-1 -53 -62 -108 -140 -125 -300 -259 -309 -259 -5 0 -9 7 -9 15 0 8 0 168 0
355 0 187 0 347 0 355 0 16 28 10 45 -9z m7075 -346 c0 -222 -4 -370 -9 -370
-9 0 -169 134 -308 259 l-63 55 0 57 c0 51 3 60 28 79 15 12 43 36 62 54 19
17 67 58 105 91 39 32 87 75 108 94 32 30 54 45 75 50 1 1 2 -165 2 -369z
m-3759 123 c48 -51 139 -169 176 -229 22 -36 83 -165 83 -177 0 -7 7 -21 15
-31 8 -11 15 -29 15 -40 0 -11 6 -38 14 -61 31 -89 56 -288 38 -299 -9 -5 -22
14 -88 129 -7 11 -31 56 -54 100 -22 44 -45 87 -50 95 -16 27 -88 184 -110
240 -12 30 -28 69 -35 85 -47 103 -86 245 -68 245 6 0 34 -26 64 -57z m-2983
-661 c2 -269 -1 -362 -9 -362 -12 0 -84 58 -164 131 -22 20 -77 69 -122 108
l-83 72 0 53 c0 52 1 55 52 97 112 95 160 137 263 231 22 21 45 36 50 34 6 -2
11 -134 13 -364z m6437 320 c28 -26 100 -89 160 -141 140 -121 145 -126 145
-182 0 -44 -3 -48 -62 -99 -35 -30 -70 -61 -79 -69 -9 -9 -27 -25 -40 -36 -13
-12 -59 -51 -101 -88 -42 -37 -81 -67 -87 -67 -12 0 -16 711 -4 723 11 12 16
8 68 -41z m-6779 -500 c10 -10 51 -45 89 -77 39 -32 72 -61 75 -64 3 -3 41
-37 85 -76 44 -38 83 -74 87 -80 4 -5 8 -32 8 -60 0 -57 12 -42 -155 -185 -60
-52 -119 -103 -130 -113 -46 -43 -86 -69 -93 -61 -10 12 -3 734 6 734 5 0 17
-8 28 -18z m7086 -344 c2 -200 0 -367 -4 -372 -8 -11 -37 8 -93 59 -22 20 -95
84 -162 142 l-123 106 0 58 c0 46 4 61 20 72 10 7 52 43 92 79 121 109 251
218 259 218 5 0 10 -163 11 -362z m-6742 -543 c0 -200 -4 -366 -8 -369 -5 -3
-28 14 -53 37 -24 24 -73 67 -109 97 -76 65 -130 113 -176 157 -30 28 -34 39
-34 82 0 48 1 50 68 107 37 32 69 62 72 65 3 3 34 30 70 59 36 30 85 73 109
96 25 24 48 41 53 38 4 -3 8 -169 8 -369z m6455 299 c5 -6 59 -53 120 -105
123 -105 165 -145 166 -159 1 -6 1 -21 1 -35 0 -48 7 -38 -83 -120 -24 -22
-91 -81 -149 -131 -58 -50 -111 -99 -119 -108 -7 -8 -17 -13 -22 -10 -10 6
-12 727 -2 738 6 5 46 -26 88 -70z m-3511 -190 c37 -6 50 -12 59 -31 9 -21 5
-29 -39 -74 -44 -45 -166 -144 -219 -176 -94 -58 -264 -128 -345 -144 -25 -4
-61 -13 -80 -18 -40 -13 -290 -19 -307 -8 -21 13 5 64 61 118 60 59 152 122
256 174 41 20 84 42 94 47 11 6 31 14 45 18 14 5 51 18 81 29 142 54 292 79
394 65z m-3262 -310 c23 -20 45 -39 48 -43 3 -4 55 -49 115 -101 173 -148 156
-121 153 -246 l-3 -109 -179 -3 c-99 -1 -183 1 -188 6 -6 6 -13 450 -8 525 0
15 19 6 62 -29z m7059 -228 c0 -143 -4 -263 -9 -268 -5 -5 -89 -7 -188 -6
l-179 3 -3 111 -3 110 33 30 c18 16 62 53 98 83 36 30 70 60 75 66 32 35 158
136 167 133 6 -2 9 -102 9 -262z"/>
<path d="M3327 4706 c-66 -29 -117 -104 -117 -171 0 -95 90 -185 185 -185 69
0 143 51 171 118 60 144 -98 301 -239 238z"/>
<path d="M3733 4430 c-25 -10 -38 -56 -24 -92 13 -34 61 -54 93 -37 51 27 63
79 28 117 -22 23 -58 27 -97 12z"/>
<path d="M3065 3810 c-132 -31 -214 -67 -300 -134 -62 -47 -161 -154 -184
-200 -12 -23 -26 -48 -30 -56 -15 -26 -38 -83 -56 -138 -25 -76 -25 -299 0
-374 84 -256 227 -408 470 -501 70 -27 228 -50 286 -42 78 11 169 31 204 45
107 44 176 84 244 143 43 37 120 125 132 152 5 11 18 35 30 54 45 75 88 241
89 340 0 131 -51 292 -130 406 -169 243 -481 370 -755 305z m295 -206 c99 -33
171 -78 238 -150 105 -111 142 -205 142 -359 0 -137 -22 -202 -107 -316 -178
-238 -526 -280 -758 -92 -71 58 -135 146 -167 228 -20 51 -23 78 -23 185 1
105 4 133 22 176 67 160 184 269 348 325 83 28 225 29 305 3z"/>
</g>
</svg>
