<?xml version="1.0" standalone="no"?>
<!DOCTYPE svg PUBLIC "-//W3C//DTD SVG 20010904//EN"
 "http://www.w3.org/TR/2001/REC-SVG-20010904/DTD/svg10.dtd">
<svg version="1.0" xmlns="http://www.w3.org/2000/svg"
 width="300.000000pt" height="300.000000pt" viewBox="0 0 300.000000 300.000000"
 preserveAspectRatio="xMidYMid meet">
<metadata>
Created by potrace 1.15, written by Peter Selinger 2001-2017
</metadata>
<g transform="translate(0.000000,300.000000) scale(0.100000,-0.100000)"
fill="#000000" stroke="none">
<path d="M1260 2824 c-553 -100 -996 -547 -1085 -1094 -19 -122 -19 -338 0
-460 78 -479 430 -889 895 -1044 147 -49 259 -66 430 -66 171 0 283 17 430 66
397 132 711 446 844 844 46 139 66 266 66 430 0 339 -105 626 -324 882 -193
226 -484 391 -781 442 -111 20 -369 19 -475 0z m542 -128 c109 -29 245 -85
332 -139 68 -41 216 -156 216 -167 0 -4 -187 -191 -415 -415 l-415 -407 0 582
0 583 93 -6 c50 -3 136 -18 189 -31z m-777 -761 l407 -415 -582 0 -583 0 6 93
c11 163 79 371 170 521 41 67 156 216 167 216 4 0 191 -187 415 -415z m1702
-547 c-15 -229 -112 -466 -273 -666 -53 -67 -69 -81 -80 -71 -8 6 -194 195
-415 420 l-401 409 587 0 588 0 -6 -92z m-1247 -535 l0 -586 -92 6 c-229 15
-466 112 -667 274 l-84 67 419 413 c230 227 420 412 422 413 1 0 2 -264 2
-587z"/>
</g>
</svg>
