<?xml version="1.0" standalone="no"?>
<!DOCTYPE svg PUBLIC "-//W3C//DTD SVG 20010904//EN"
 "http://www.w3.org/TR/2001/REC-SVG-20010904/DTD/svg10.dtd">
<svg version="1.0" xmlns="http://www.w3.org/2000/svg"
 width="300.000000pt" height="300.000000pt" viewBox="0 0 300.000000 300.000000"
 preserveAspectRatio="xMidYMid meet">
<metadata>
Created by potrace 1.15, written by Peter Selinger 2001-2017
</metadata>
<g transform="translate(0.000000,300.000000) scale(0.100000,-0.100000)"
fill="#000000" stroke="none">
<path d="M1667 2625 l-89 -165 -98 0 c-448 0 -862 -285 -1035 -715 -61 -152
-70 -209 -69 -425 1 -180 3 -202 27 -285 28 -93 134 -316 153 -322 6 -2 34 33
63 78 l51 81 -30 64 c-17 36 -42 108 -57 162 -22 82 -26 118 -26 232 -1 116 3
149 27 235 48 179 122 307 248 433 155 156 359 253 582 277 l68 8 -25 -44
c-13 -24 -93 -170 -177 -324 -84 -154 -164 -300 -178 -325 -13 -25 -159 -292
-324 -595 -165 -302 -324 -594 -354 -648 -30 -53 -54 -102 -54 -107 0 -6 82
-10 220 -10 l220 0 178 355 c114 229 181 354 189 350 7 -2 90 -5 185 -7 95 -1
208 -4 250 -6 l77 -4 3 -68 3 -69 195 144 c107 80 195 148 195 153 0 8 -370
342 -380 342 -3 0 -5 -36 -5 -80 l0 -80 -205 0 -205 0 39 78 c21 42 57 115 79
162 22 47 102 209 177 360 l137 275 -6 -313 c-4 -248 -3 -316 7 -325 44 -41
174 -162 240 -225 42 -41 79 -73 81 -71 2 2 9 141 15 309 6 168 13 334 16 370
3 36 5 98 5 138 l0 74 57 -49 c198 -168 323 -444 323 -712 0 -316 -162 -616
-426 -788 -135 -88 -262 -133 -437 -154 -151 -18 -367 20 -506 91 l-59 29 -36
-80 c-20 -45 -36 -84 -36 -88 0 -10 95 -53 177 -82 167 -58 401 -76 572 -44
382 73 699 327 851 683 66 156 75 204 75 417 0 212 -5 257 -41 365 -77 229
-246 452 -441 583 l-64 42 6 140 c3 77 8 186 11 243 l6 102 -179 0 -178 0 -88
-165z"/>
<path d="M1845 808 c-93 -71 -171 -133 -173 -136 -1 -4 79 -6 177 -4 l180 3 3
134 c2 86 -1 135 -7 134 -5 -1 -86 -59 -180 -131z"/>
</g>
</svg>
