<?xml version="1.0" standalone="no"?>
<!DOCTYPE svg PUBLIC "-//W3C//DTD SVG 20010904//EN"
 "http://www.w3.org/TR/2001/REC-SVG-20010904/DTD/svg10.dtd">
<svg version="1.0" xmlns="http://www.w3.org/2000/svg"
 width="300.000000pt" height="300.000000pt" viewBox="0 0 300.000000 300.000000"
 preserveAspectRatio="xMidYMid meet">
<metadata>
Created by potrace 1.15, written by Peter Selinger 2001-2017
</metadata>
<g transform="translate(0.000000,300.000000) scale(0.100000,-0.100000)"
fill="#000000" stroke="none">
<path d="M983 2735 l-35 -35 -110 0 -110 0 -34 -34 -34 -34 0 -1172 0 -1172
34 -34 34 -34 767 0 767 0 34 34 34 34 0 1172 0 1172 -34 34 -34 34 -105 0
-105 0 -35 35 -35 35 -482 0 -482 0 -35 -35z m-33 -181 c0 -84 1 -87 34 -120
l34 -34 482 0 482 0 34 34 c33 33 34 35 34 121 l0 87 90 -4 c69 -2 93 -7 107
-21 17 -17 18 -77 18 -1157 0 -1080 -1 -1140 -18 -1157 -17 -17 -60 -18 -752
-18 -692 0 -735 1 -752 18 -17 17 -18 78 -21 1141 -1 730 1 1133 8 1150 13 36
40 45 138 45 l82 1 0 -86z"/>
<path d="M2080 2169 l-73 -80 -36 35 c-29 28 -40 33 -49 24 -20 -20 -14 -31
39 -83 l51 -50 65 70 c92 100 116 133 109 150 -11 29 -34 15 -106 -66z"/>
<path d="M930 2080 c0 -20 7 -20 465 -20 458 0 465 0 465 20 0 20 -7 20 -465
20 -458 0 -465 0 -465 -20z"/>
<path d="M2080 1689 l-73 -80 -36 35 c-29 28 -40 33 -49 24 -20 -20 -14 -31
39 -83 l51 -50 65 70 c92 100 116 133 109 150 -11 29 -34 15 -106 -66z"/>
<path d="M930 1600 c0 -20 7 -20 465 -20 458 0 465 0 465 20 0 20 -7 20 -465
20 -458 0 -465 0 -465 -20z"/>
<path d="M2080 1209 l-73 -80 -36 35 c-29 28 -40 33 -49 24 -20 -20 -14 -31
39 -83 l51 -50 65 70 c92 100 116 133 109 150 -11 29 -34 15 -106 -66z"/>
<path d="M930 1120 c0 -20 7 -20 465 -20 458 0 465 0 465 20 0 20 -7 20 -465
20 -458 0 -465 0 -465 -20z"/>
<path d="M2080 729 l-73 -80 -36 35 c-29 28 -40 33 -49 24 -20 -20 -14 -31 39
-83 l51 -50 65 70 c92 100 116 133 109 150 -11 29 -34 15 -106 -66z"/>
<path d="M930 640 c0 -20 7 -20 465 -20 458 0 465 0 465 20 0 20 -7 20 -465
20 -458 0 -465 0 -465 -20z"/>
</g>
</svg>
