<?xml version="1.0" standalone="no"?>
<!DOCTYPE svg PUBLIC "-//W3C//DTD SVG 20010904//EN"
 "http://www.w3.org/TR/2001/REC-SVG-20010904/DTD/svg10.dtd">
<svg version="1.0" xmlns="http://www.w3.org/2000/svg"
 width="300.000000pt" height="300.000000pt" viewBox="0 0 300.000000 300.000000"
 preserveAspectRatio="xMidYMid meet">
<metadata>
Created by potrace 1.15, written by Peter Selinger 2001-2017
</metadata>
<g transform="translate(0.000000,300.000000) scale(0.100000,-0.100000)"
fill="#000000" stroke="none">
<path d="M340 2165 l0 -305 190 0 190 0 0 305 0 305 -190 0 -190 0 0 -305z"/>
<path d="M770 2150 l0 -50 1035 0 1035 0 0 50 0 50 -1035 0 -1035 0 0 -50z"/>
<path d="M2250 1495 l0 -305 190 0 190 0 0 305 0 305 -190 0 -190 0 0 -305z"/>
<path d="M160 1490 l0 -50 1020 0 1020 0 0 50 0 50 -1020 0 -1020 0 0 -50z"/>
<path d="M2680 1490 l0 -50 80 0 80 0 0 50 0 50 -80 0 -80 0 0 -50z"/>
<path d="M1250 835 l0 -305 190 0 190 0 0 305 0 305 -190 0 -190 0 0 -305z"/>
<path d="M160 830 l0 -50 520 0 520 0 0 50 0 50 -520 0 -520 0 0 -50z"/>
<path d="M1670 830 l0 -50 585 0 585 0 0 50 0 50 -585 0 -585 0 0 -50z"/>
</g>
</svg>
