<?xml version="1.0" standalone="no"?>
<!DOCTYPE svg PUBLIC "-//W3C//DTD SVG 20010904//EN"
 "http://www.w3.org/TR/2001/REC-SVG-20010904/DTD/svg10.dtd">
<svg version="1.0" xmlns="http://www.w3.org/2000/svg"
 width="300.000000pt" height="300.000000pt" viewBox="0 0 300.000000 300.000000"
 preserveAspectRatio="xMidYMid meet">
<metadata>
Created by potrace 1.15, written by Peter Selinger 2001-2017
</metadata>
<g transform="translate(0.000000,300.000000) scale(0.100000,-0.100000)"
fill="#000000" stroke="none">
<path d="M1255 2823 c-474 -85 -875 -434 -1029 -893 -46 -139 -66 -266 -66
-430 0 -337 103 -621 320 -878 191 -227 487 -395 785 -446 118 -21 352 -21
470 0 480 83 884 430 1039 894 46 139 66 266 66 430 0 339 -105 626 -324 882
-193 226 -484 391 -781 442 -113 20 -369 19 -480 -1z m384 -98 c41 -4 116 -17
165 -30 471 -123 828 -509 912 -985 19 -109 19 -311 0 -420 -111 -627 -686
-1071 -1319 -1018 -555 46 -1016 467 -1113 1018 -19 109 -19 311 0 420 85 481
450 871 927 989 92 23 249 41 314 35 22 -2 74 -6 114 -9z"/>
<path d="M813 1793 c-16 -6 -17 -43 -2 -43 5 0 7 -4 4 -10 -3 -5 -18 -10 -33
-10 -15 0 -46 -9 -69 -19 l-42 -19 -51 49 c-36 35 -59 49 -79 49 -34 0 -46
-22 -61 -110 -6 -36 -18 -83 -26 -105 -8 -22 -16 -62 -19 -90 -2 -27 -7 -86
-11 -131 l-7 -81 26 -7 c20 -5 49 5 113 36 l87 43 56 -28 c71 -35 164 -44 241
-24 l54 15 40 -34 c22 -19 42 -33 45 -32 4 2 61 60 129 129 100 103 122 131
122 155 -1 24 -22 49 -124 147 -69 64 -131 117 -140 117 -9 0 -34 -16 -55 -35
l-39 -36 -71 12 c-59 10 -69 14 -59 26 9 11 8 17 -3 27 -8 8 -20 12 -26 9z
m-66 -227 c29 -27 53 -56 53 -65 0 -10 5 -22 10 -27 7 -7 -2 -16 -30 -29 -33
-15 -43 -16 -53 -5 -8 9 -9 14 -1 17 6 2 20 10 30 18 18 13 14 19 -66 99 -47
47 -90 86 -97 86 -14 0 -16 -7 -44 -147 -25 -129 -22 -149 16 -131 21 9 29 9
41 -4 13 -13 9 -17 -38 -35 -29 -12 -61 -24 -70 -28 -16 -6 -17 -1 -12 56 8
87 42 272 62 337 l16 53 66 -73 c35 -40 88 -95 117 -122z m434 83 l110 -110
-31 -39 c-53 -67 -186 -181 -204 -174 -9 3 -16 8 -16 11 0 2 43 47 95 99 52
52 95 100 95 107 -1 12 -152 157 -165 157 -15 0 -165 -154 -165 -169 0 -8 14
-30 32 -48 25 -26 29 -36 20 -45 -9 -9 -23 -1 -62 37 -28 27 -50 52 -50 55 0
7 220 230 226 230 3 0 54 -50 115 -111z m-101 -97 c12 -46 -13 -106 -60 -146
-46 -38 -71 -46 -165 -53 -67 -5 -89 -2 -126 14 -92 41 -147 113 -134 175 9
40 28 30 37 -20 10 -59 35 -92 93 -118 158 -74 353 24 315 157 -5 18 -7 36 -4
41 10 15 33 -12 44 -50z"/>
</g>
</svg>
